<svg width="49" height="40" viewBox="0 0 49 40" fill="none" xmlns="http://www.w3.org/2000/svg">
<circle cx="44.5" cy="33.5" r="4.5" fill="#C5A283"/>
<circle cx="20" cy="20" r="20" fill="#AA785D"/>
<path d="M10.2042 21.1039C10.0582 18.0373 9.90438 14.881 10.0751 11.8076C10.1002 11.3571 10.6163 12.08 10.6346 12.1161C11.8994 14.5969 12.7936 17.2381 14.3072 19.5976C14.8029 20.3703 17.5268 22.9733 18.3959 21.4482C19.834 18.9248 19.2189 15.3241 19.0558 12.5751C19.0048 11.7153 18.9841 10.8606 18.9841 10" stroke="white" stroke-width="3" stroke-linecap="round"/>
<path d="M30.0881 15.1646C28.9662 15.0524 28.0904 14.4359 26.896 14.5334C25.2507 14.6677 23.9218 15.6134 23.0154 16.9435C22.3255 17.956 21.9775 19.4259 22.2909 20.6448C22.7476 22.4208 25.2105 21.185 26.0998 20.5157C27.2434 19.6551 27.5827 18.1202 27.8285 16.7929C27.8601 16.6224 27.8581 15.6677 27.9218 16.2406C28.3989 20.5341 28.6678 24.9166 28.6678 29.2382" stroke="white" stroke-width="3" stroke-linecap="round"/>
</svg>
